<svg width="256" height="256" viewBox="0 0 256 256" fill="none" xmlns="http://www.w3.org/2000/svg">
<g clip-path="url(#clip0_698_8524)">
<rect width="256" height="256" rx="53.3333" fill="#1F47F7"/>
<mask id="mask0_698_8524" style="mask-type:alpha" maskUnits="userSpaceOnUse" x="27" y="27" width="373" height="372">
<rect x="27.8621" y="27.7341" width="371.2" height="371.2" fill="#D9D9D9"/>
</mask>
<g mask="url(#mask0_698_8524)">
<path d="M53.8385 146.559C53.8385 130.319 57.7052 115.858 65.4385 103.175C73.1718 90.4926 81.6785 79.8206 90.9585 71.1593C100.239 62.4979 108.745 55.8859 116.479 51.3232L128.079 44.4792V75.1033C128.079 80.8259 130.012 85.3499 133.879 88.6753C137.745 92.0006 142.076 93.6633 146.871 93.6633C149.5 93.6633 152.013 93.1219 154.411 92.0393C156.808 90.9566 159.012 89.1779 161.023 86.7033L165.199 81.5993C176.335 88.0953 185.305 97.1046 192.111 108.627C198.916 120.15 202.319 132.794 202.319 146.559C202.319 160.17 198.993 172.582 192.343 183.795C185.692 195.009 176.953 203.863 166.127 210.359C168.756 206.647 170.805 202.587 172.275 198.179C173.744 193.771 174.479 189.093 174.479 184.143C174.479 177.957 173.319 172.118 170.999 166.627C168.679 161.137 165.353 156.226 161.023 151.895L128.079 119.647L95.3665 151.895C90.8812 156.381 87.4785 161.33 85.1585 166.743C82.8385 172.157 81.6785 177.957 81.6785 184.143C81.6785 189.093 82.4132 193.771 83.8825 198.179C85.3518 202.587 87.4012 206.647 90.0305 210.359C79.2038 203.863 70.4652 195.009 63.8145 183.795C57.1638 172.582 53.8385 160.17 53.8385 146.559ZM128.079 145.631L147.799 164.887C150.428 167.517 152.439 170.455 153.831 173.703C155.223 176.951 155.919 180.431 155.919 184.143C155.919 191.722 153.212 198.179 147.799 203.515C142.385 208.851 135.812 211.519 128.079 211.519C120.345 211.519 113.772 208.851 108.359 203.515C102.945 198.179 100.239 191.722 100.239 184.143C100.239 180.586 100.935 177.145 102.327 173.819C103.719 170.494 105.729 167.517 108.359 164.887L128.079 145.631Z" fill="url(#paint0_linear_698_8524)"/>
</g>
</g>
<rect x="5.33333" y="5.33333" width="245.333" height="245.333" rx="48" stroke="white" stroke-opacity="0.5" stroke-width="10.6667"/>
<defs>
<linearGradient id="paint0_linear_698_8524" x1="128.079" y1="44.4792" x2="128.079" y2="211.519" gradientUnits="userSpaceOnUse">
<stop stop-color="white"/>
<stop offset="1" stop-color="white" stop-opacity="0.7"/>
</linearGradient>
<clipPath id="clip0_698_8524">
<rect width="256" height="256" rx="53.3333" fill="white"/>
</clipPath>
</defs>
</svg>
